<?xml version="1.0" encoding="UTF-8"?>
<svg width="42px" height="42px" viewBox="0 0 42 42" version="1.1" xmlns="http://www.w3.org/2000/svg" xmlns:xlink="http://www.w3.org/1999/xlink">
    <!-- Generator: Sketch 48.2 (47327) - http://www.bohemiancoding.com/sketch -->
    <title>Artboard</title>
    <desc>Created with Sketch.</desc>
    <defs>
        <path d="M22,0.577350269 L38.1865335,9.92264973 C38.8053356,10.2799153 39.1865335,10.9401694 39.1865335,11.6547005 L39.1865335,30.3452995 C39.1865335,31.0598306 38.8053356,31.7200847 38.1865335,32.0773503 L22,41.4226497 C21.3811978,41.7799153 20.6188022,41.7799153 20,41.4226497 L3.81346652,32.0773503 C3.19466437,31.7200847 2.81346652,31.0598306 2.81346652,30.3452995 L2.81346652,11.6547005 C2.81346652,10.9401694 3.19466437,10.2799153 3.81346652,9.92264973 L20,0.577350269 C20.6188022,0.220084679 21.3811978,0.220084679 22,0.577350269 Z" id="path-1"></path>
        <filter x="-16.5%" y="-14.3%" width="133.0%" height="128.6%" filterUnits="objectBoundingBox" id="filter-2">
            <feOffset dx="0" dy="0" in="SourceAlpha" result="shadowOffsetOuter1"></feOffset>
            <feGaussianBlur stdDeviation="2" in="shadowOffsetOuter1" result="shadowBlurOuter1"></feGaussianBlur>
            <feColorMatrix values="0 0 0 0 0   0 0 0 0 0   0 0 0 0 0  0 0 0 0.263586957 0" type="matrix" in="shadowBlurOuter1"></feColorMatrix>
        </filter>
    </defs>
    <g id="Page-1" stroke="none" stroke-width="1" fill="none" fill-rule="evenodd">
        <g id="Artboard">
            <g id="Polygon">
                <use fill="black" fill-opacity="1" filter="url(#filter-2)" xlink:href="#path-1"></use>
                <use fill="#13C1AC" fill-rule="evenodd" xlink:href="#path-1"></use>
            </g>
            <path d="M20.8051758,29 L18.0869141,29 L11.4165039,18.1918945 L11.3422852,18.1918945 L11.3886719,18.7949219 C11.4752608,19.9453183 11.5185547,20.99674 11.5185547,21.9492188 L11.5185547,29 L9.50537109,29 L9.50537109,15.4365234 L12.1958008,15.4365234 L18.8476562,26.1889648 L18.9033203,26.1889648 C18.8909505,26.0467115 18.8662111,25.5287317 18.8291016,24.6350098 C18.791992,23.7412878 18.7734375,23.0439478 18.7734375,22.5429688 L18.7734375,15.4365234 L20.8051758,15.4365234 L20.8051758,29 Z M33.3666992,19.5371094 C33.3666992,20.9534576 32.9028367,22.038896 31.9750977,22.793457 C31.0473586,23.5480181 29.7268966,23.925293 28.0136719,23.925293 L26.6035156,23.925293 L26.6035156,29 L24.3862305,29 L24.3862305,15.4365234 L28.2919922,15.4365234 C29.9866621,15.4365234 31.2560993,15.7828741 32.1003418,16.4755859 C32.9445843,17.1682977 33.3666992,18.1887953 33.3666992,19.5371094 Z M26.6035156,22.0605469 L27.7817383,22.0605469 C28.9197648,22.0605469 29.7547174,21.8626322 30.2866211,21.4667969 C30.8185248,21.0709616 31.0844727,20.4524782 31.0844727,19.6113281 C31.0844727,18.8320274 30.8463565,18.250653 30.3701172,17.8671875 C29.8938778,17.483722 29.1516977,17.2919922 28.1435547,17.2919922 L26.6035156,17.2919922 L26.6035156,22.0605469 Z" id="NP" fill="#FFFFFF"></path>
        </g>
    </g>
</svg>